<mxfile host="65bd71144e">
    <diagram id="Clo06Q7o2HWKj7E-864_" name="Page-1">
        <mxGraphModel dx="1113" dy="1722" grid="1" gridSize="10" guides="1" tooltips="1" connect="1" arrows="1" fold="1" page="1" pageScale="1" pageWidth="850" pageHeight="1100" background="#ffffff" math="0" shadow="0">
            <root>
                <mxCell id="0"/>
                <mxCell id="1" parent="0"/>
                <mxCell id="17" value="3. constructor&lt;br&gt;approve()" style="edgeStyle=none;html=1;startArrow=none;startFill=0;endArrow=classic;endFill=1;" parent="1" source="6" target="9" edge="1">
                    <mxGeometry relative="1" as="geometry"/>
                </mxCell>
                <mxCell id="36" value="4. buy()" style="edgeStyle=none;html=1;exitX=0.25;exitY=0;exitDx=0;exitDy=0;entryX=0.25;entryY=1;entryDx=0;entryDy=0;fontSize=11;startArrow=classic;startFill=1;endArrow=none;endFill=0;" parent="1" source="6" target="28" edge="1">
                    <mxGeometry relative="1" as="geometry"/>
                </mxCell>
                <mxCell id="40" value="6. fund distribute" style="edgeStyle=none;html=1;fontSize=11;startArrow=none;startFill=0;endArrow=classic;endFill=1;dashed=1;" parent="1" source="6" edge="1">
                    <mxGeometry relative="1" as="geometry">
                        <mxPoint x="60" y="140" as="targetPoint"/>
                    </mxGeometry>
                </mxCell>
                <mxCell id="6" value="CrowdSale.sol" style="shape=document;whiteSpace=wrap;html=1;boundedLbl=1;" parent="1" vertex="1">
                    <mxGeometry x="230" y="240" width="120" height="80" as="geometry"/>
                </mxCell>
                <mxCell id="10" value="2. mint()" style="edgeStyle=none;html=1;exitX=0;exitY=0.25;exitDx=0;exitDy=0;entryX=1;entryY=0.25;entryDx=0;entryDy=0;" parent="1" source="9" target="6" edge="1">
                    <mxGeometry relative="1" as="geometry"/>
                </mxCell>
                <mxCell id="14" value="1. initialize()" style="edgeStyle=none;html=1;endArrow=none;endFill=0;startArrow=classic;startFill=1;" parent="1" source="9" target="11" edge="1">
                    <mxGeometry relative="1" as="geometry">
                        <Array as="points">
                            <mxPoint x="540" y="200"/>
                            <mxPoint x="65" y="200"/>
                        </Array>
                    </mxGeometry>
                </mxCell>
                <mxCell id="19" value="5. batchTransfer()" style="edgeStyle=none;html=1;startArrow=none;startFill=0;endArrow=classic;endFill=1;" parent="1" source="9" edge="1">
                    <mxGeometry relative="1" as="geometry">
                        <mxPoint x="65" y="330" as="targetPoint"/>
                        <Array as="points">
                            <mxPoint x="540" y="400"/>
                            <mxPoint x="65" y="400"/>
                        </Array>
                    </mxGeometry>
                </mxCell>
                <mxCell id="9" value="MyToken.sol" style="shape=document;whiteSpace=wrap;html=1;boundedLbl=1;" parent="1" vertex="1">
                    <mxGeometry x="480" y="240" width="120" height="80" as="geometry"/>
                </mxCell>
                <mxCell id="11" value="Malicious" style="shape=umlActor;verticalLabelPosition=bottom;verticalAlign=top;html=1;outlineConnect=0;" parent="1" vertex="1">
                    <mxGeometry x="50" y="240" width="30" height="60" as="geometry"/>
                </mxCell>
                <mxCell id="22" value="&lt;font style=&quot;font-size: 11px;&quot;&gt;inheritance&lt;/font&gt;" style="edgeStyle=none;html=1;entryX=1;entryY=0.5;entryDx=0;entryDy=0;fontSize=11;startArrow=none;startFill=0;endArrow=none;endFill=0;dashed=1;" parent="1" source="20" target="9" edge="1">
                    <mxGeometry relative="1" as="geometry"/>
                </mxCell>
                <mxCell id="20" value="&lt;font style=&quot;font-size: 8px&quot;&gt;@openzeppelin/contracts&lt;/font&gt;" style="shape=folder;fontStyle=1;tabWidth=110;tabHeight=30;tabPosition=left;html=1;boundedLbl=1;labelInHeader=1;container=1;collapsible=0;recursiveResize=0;" parent="1" vertex="1">
                    <mxGeometry x="680" y="230" width="150" height="100" as="geometry"/>
                </mxCell>
                <mxCell id="21" value="ERC20.sol" style="html=1;" parent="20" vertex="1">
                    <mxGeometry width="110" height="30" relative="1" as="geometry">
                        <mxPoint x="20" y="50" as="offset"/>
                    </mxGeometry>
                </mxCell>
                <mxCell id="33" value="" style="group" parent="1" vertex="1" connectable="0">
                    <mxGeometry x="193" y="-51" width="270" height="120" as="geometry"/>
                </mxCell>
                <mxCell id="24" value="Victim Venture" style="shape=umlActor;verticalLabelPosition=bottom;verticalAlign=top;html=1;outlineConnect=0;" parent="33" vertex="1">
                    <mxGeometry x="30" y="20" width="30" height="60" as="geometry"/>
                </mxCell>
                <mxCell id="26" value="Victim Venture" style="shape=umlActor;verticalLabelPosition=bottom;verticalAlign=top;html=1;outlineConnect=0;" parent="33" vertex="1">
                    <mxGeometry x="120" y="20" width="30" height="60" as="geometry"/>
                </mxCell>
                <mxCell id="27" value="Victim Venture" style="shape=umlActor;verticalLabelPosition=bottom;verticalAlign=top;html=1;outlineConnect=0;" parent="33" vertex="1">
                    <mxGeometry x="210" y="20" width="30" height="60" as="geometry"/>
                </mxCell>
                <mxCell id="28" value="" style="rounded=0;whiteSpace=wrap;html=1;fontSize=11;fillColor=none;dashed=1;" parent="33" vertex="1">
                    <mxGeometry width="270" height="120" as="geometry"/>
                </mxCell>
                <mxCell id="38" value="Malicious doing trick on batchTransfer() that hiding inside customized `@openzeppelin/contracts` inside batchTransfer() have condition that if Malicious called this function will distributed fund from Crowdsale contract to the destination address to create pseudo anonymous before Malicious doing more stuff e.g. (Tornado cash, zkSync, Loopring, Aztec)" style="text;html=1;strokeColor=none;fillColor=none;align=left;verticalAlign=middle;whiteSpace=wrap;rounded=0;dashed=1;fontSize=11;" parent="1" vertex="1">
                    <mxGeometry x="60" y="420" width="380" height="60" as="geometry"/>
                </mxCell>
                <mxCell id="41" value="Mix addresses" style="ellipse;shape=cloud;whiteSpace=wrap;html=1;fontSize=11;fillColor=default;" parent="1" vertex="1">
                    <mxGeometry x="-50" y="30" width="180" height="110" as="geometry"/>
                </mxCell>
            </root>
        </mxGraphModel>
    </diagram>
</mxfile>